<svg width="33" height="32" viewBox="0 0 33 32" fill="none" xmlns="http://www.w3.org/2000/svg">
<g id="Icon / breakfast">
<g id="Subtract">
<path d="M18.7453 2.54713C17.3559 1.81762 15.6441 1.81762 14.2548 2.54713L10.7445 4.39026L23.211 11.2235L29.1125 8.12481C28.8564 7.90219 28.5692 7.70537 28.2548 7.54024L18.7453 2.54713Z" fill="#FFF5EE"/>
<path d="M30.3722 10.1091L24.3659 13.2629V17.6334C24.3659 18.281 23.8435 18.8059 23.1992 18.8059C22.5549 18.8059 22.0325 18.281 22.0325 17.6334V14.488L18.5019 16.3418C17.9885 16.6114 17.6667 17.1453 17.6667 17.7275V30C18.0394 29.9088 18.4021 29.7732 18.7453 29.593L28.2548 24.5999C29.6441 23.8704 30.5 22.5222 30.5 21.0632V11.077C30.5 10.7467 30.4562 10.4221 30.3722 10.1091Z" fill="#FFF5EE"/>
<path d="M15.3333 30V17.7275C15.3333 17.1453 15.0115 16.6114 14.4981 16.3418L2.62781 10.1091C2.54385 10.4221 2.5 10.7467 2.5 11.077V21.0632C2.5 22.5222 3.35588 23.8704 4.74525 24.5999L14.2548 29.593C14.5979 29.7732 14.9606 29.9088 15.3333 30Z" fill="#FFF5EE"/>
<path d="M3.88754 8.12482L16.5 14.7472L20.7221 12.5303L8.94139 6.07305C8.72222 5.90835 8.56916 5.78586 8.46585 5.58669L4.74525 7.54024C4.43077 7.70537 4.14362 7.90219 3.88754 8.12482Z" fill="#FFF5EE"/>
</g>
</g>
</svg>
