<svg width="15" height="24" viewBox="0 0 15 24" fill="none" xmlns="http://www.w3.org/2000/svg">
<g id="Group Copy 16">
<path id="Shape" d="M10.8547 17.2404L10.8323 23.1782C10.8318 23.3111 10.8854 23.4378 10.9811 23.5299C11.0718 23.6177 11.1928 23.6661 11.3183 23.6661C11.325 23.6661 11.3314 23.6661 11.338 23.6656L13.7404 23.5679C14.0002 23.5574 14.2058 23.3443 14.2067 23.0842L14.2296 17.0316C14.1013 17.0778 13.9676 17.1123 13.8258 17.1204L10.8547 17.2404Z" fill="#828487"/>
<path id="Shape_2" d="M14.1057 0.440324C13.9842 0.343135 13.8286 0.313943 13.6828 0.352866C11.4323 0.931254 9.7554 2.97763 9.50264 5.44682L8.46245 15.8098C8.44789 15.9507 8.49165 16.0868 8.58884 16.1889C8.68119 16.2909 8.81244 16.3444 8.94368 16.3444H8.96312L13.7703 16.15C14.0279 16.1354 14.2321 15.9264 14.2369 15.6639L14.2904 0.824334C14.2904 0.673626 14.2223 0.532707 14.1057 0.440324Z" fill="#828487"/>
<path id="Shape_3" d="M3.59712 10.4097C3.08165 10.4097 2.59758 10.2766 2.15521 10.04L1.81686 21.6305C1.77912 22.1745 1.96306 22.7099 2.32144 23.0991C2.65252 23.4589 3.09586 23.6607 3.56983 23.6668C3.57742 23.6668 3.58502 23.6668 3.59261 23.6668C4.06396 23.6668 4.50707 23.4732 4.84266 23.1205C5.21172 22.7322 5.40325 22.193 5.3686 21.6599L5.07659 10.0212C4.62437 10.2706 4.12697 10.4097 3.59712 10.4097Z" fill="#828487"/>
<path id="Shape_4" d="M3.59681 0.333374C1.96361 0.333374 0.68042 2.33602 0.68042 4.88786C0.68042 7.4397 1.96361 9.43736 3.59681 9.43736C5.23484 9.43736 6.5132 7.4397 6.5132 4.88786C6.5132 2.33602 5.23484 0.333374 3.59681 0.333374Z" fill="#828487"/>
</g>
</svg>
