<svg width="29" height="36" viewBox="0 0 29 36" fill="none" xmlns="http://www.w3.org/2000/svg">
<g id="Logo / IFBA">
<g id="IFBA">
<path d="M9.49091 4.75676C9.49091 7.1077 7.3663 9.01351 4.74545 9.01351C2.12461 9.01351 0 7.1077 0 4.75676C0 2.40581 2.12461 0.5 4.74545 0.5C7.3663 0.5 9.49091 2.40581 9.49091 4.75676Z" fill="#C91517"/>
<path d="M10.5455 1.91892C10.5455 1.39649 11.0176 0.972973 11.6 0.972973H17.9273C18.5097 0.972973 18.9818 1.39649 18.9818 1.91892V7.59459C18.9818 8.11703 18.5097 8.54054 17.9273 8.54054H11.6C11.0176 8.54054 10.5455 8.11703 10.5455 7.59459V1.91892Z" fill="#379936"/>
<path d="M20.5636 1.91892C20.5636 1.39649 21.0358 0.972973 21.6182 0.972973H27.9455C28.5279 0.972973 29 1.39649 29 1.91892V7.59459C29 8.11703 28.5279 8.54054 27.9455 8.54054H21.6182C21.0358 8.54054 20.5636 8.11703 20.5636 7.59459V1.91892Z" fill="#379936"/>
<path d="M10.5455 10.9054C10.5455 10.383 11.0176 9.95946 11.6 9.95946H17.9273C18.5097 9.95946 18.9818 10.383 18.9818 10.9054V16.5811C18.9818 17.1035 18.5097 17.527 17.9273 17.527H11.6C11.0176 17.527 10.5455 17.1035 10.5455 16.5811V10.9054Z" fill="#379936"/>
<path d="M0.527273 10.9054C0.527273 10.383 0.999409 9.95946 1.58182 9.95946H7.90909C8.4915 9.95946 8.96364 10.383 8.96364 10.9054V16.5811C8.96364 17.1035 8.4915 17.527 7.90909 17.527H1.58182C0.999409 17.527 0.527273 17.1035 0.527273 16.5811V10.9054Z" fill="#379936"/>
<path d="M0.527273 19.8919C0.527273 19.3695 0.999409 18.9459 1.58182 18.9459H7.90909C8.4915 18.9459 8.96364 19.3695 8.96364 19.8919V25.5676C8.96364 26.09 8.4915 26.5135 7.90909 26.5135H1.58182C0.999409 26.5135 0.527273 26.09 0.527273 25.5676V19.8919Z" fill="#379936"/>
<path d="M10.5455 19.8919C10.5455 19.3695 11.0176 18.9459 11.6 18.9459H17.9273C18.5097 18.9459 18.9818 19.3695 18.9818 19.8919V25.5676C18.9818 26.09 18.5097 26.5135 17.9273 26.5135H11.6C11.0176 26.5135 10.5455 26.09 10.5455 25.5676V19.8919Z" fill="#379936"/>
<path d="M10.5455 28.8784C10.5455 28.3559 11.0176 27.9324 11.6 27.9324H17.9273C18.5097 27.9324 18.9818 28.3559 18.9818 28.8784V34.5541C18.9818 35.0765 18.5097 35.5 17.9273 35.5H11.6C11.0176 35.5 10.5455 35.0765 10.5455 34.5541V28.8784Z" fill="#379936"/>
<path d="M0.527273 28.8784C0.527273 28.3559 0.999409 27.9324 1.58182 27.9324H7.90909C8.4915 27.9324 8.96364 28.3559 8.96364 28.8784V34.5541C8.96364 35.0765 8.4915 35.5 7.90909 35.5H1.58182C0.999409 35.5 0.527273 35.0765 0.527273 34.5541V28.8784Z" fill="#379936"/>
<path d="M20.5636 19.8919C20.5636 19.3695 21.0358 18.9459 21.6182 18.9459H27.9455C28.5279 18.9459 29 19.3695 29 19.8919V25.5676C29 26.09 28.5279 26.5135 27.9455 26.5135H21.6182C21.0358 26.5135 20.5636 26.09 20.5636 25.5676V19.8919Z" fill="#379936"/>
</g>
</g>
</svg>
