<svg width="33" height="32" viewBox="0 0 33 32" fill="none" xmlns="http://www.w3.org/2000/svg">
<g id="Icon / lasagna">
<g id="Icon">
<path id="Shape" fill-rule="evenodd" clip-rule="evenodd" d="M29.5314 13.4419C30.1263 13.9429 30.483 14.7856 30.4816 15.6872C30.4858 16.5754 30.1444 17.4099 29.568 17.9209C29.7721 18.4726 29.8781 19.0739 29.8786 19.6826V23.3038C29.8743 23.9009 29.7683 24.4898 29.568 25.0309C30.3442 25.7041 30.6826 26.9355 30.4029 28.0695C30.1232 29.2035 29.2905 29.9762 28.3482 29.9762C27.052 30.0097 25.768 29.6545 24.6021 28.94C23.3346 28.1803 21.8631 28.1803 20.5956 28.94C19.4298 29.6551 18.1457 30.0104 16.8495 29.9762C16.6946 29.98 16.5857 29.9834 16.5116 29.9863C16.4373 29.9834 16.3275 29.98 16.1708 29.9762C14.8747 30.0077 13.5911 29.6526 12.4247 28.94C11.8057 28.537 11.1156 28.3389 10.4191 28.3642C9.72426 28.3399 9.03582 28.538 8.41817 28.94C7.25174 29.6526 5.96813 30.0077 4.67207 29.9762C3.72975 29.9762 2.89709 29.2035 2.61739 28.0695C2.33769 26.9355 2.67604 25.7041 3.45231 25.0309C3.25191 24.4898 3.14598 23.9009 3.14165 23.3038V19.6653C3.14217 19.0566 3.24819 18.4554 3.45231 17.9037C2.86307 17.4002 2.5102 16.5613 2.5102 15.6642C2.5102 14.767 2.86307 13.9282 3.45231 13.4247C3.23632 12.8609 3.1239 12.243 3.12338 11.617V10.2636C3.12183 9.66822 3.22153 9.07929 3.41576 8.53651C2.64714 7.85829 2.317 6.62967 2.60051 5.50248C2.88402 4.3753 3.71549 3.61065 4.6538 3.61422C5.35022 3.63955 6.04033 3.44145 6.65933 3.03852C7.82364 2.32401 9.10612 1.96881 10.4009 2.00225C11.6971 1.96811 12.9812 2.32333 14.147 3.03852C14.766 3.44145 15.4561 3.63955 16.1525 3.61422C16.8474 3.63857 17.5358 3.4405 18.1535 3.03852C18.2986 2.94987 18.4206 2.87222 18.5254 2.80557C18.8419 2.60423 19.0004 2.50337 19.159 2.5033C19.2742 2.50325 19.3895 2.55644 19.5655 2.66301C21.7619 1.67102 24.1914 1.79619 26.3289 3.03852C26.9466 3.4405 27.635 3.63857 28.3299 3.61422C29.2682 3.61065 30.0997 4.3753 30.3832 5.50248C30.6667 6.62967 30.3366 7.85829 29.568 8.53651C29.7622 9.07929 29.8619 9.66822 29.8603 10.2636V11.6342C29.8598 12.2603 29.7474 12.8781 29.5314 13.4419ZM16.5099 30C16.6271 30 16.7448 29.9954 16.5116 29.9863C16.2765 29.9955 16.3929 30 16.5099 30ZM28.3299 17.2473C28.43 17.2466 28.5296 17.2311 28.6269 17.2013C28.781 17.1502 28.9264 17.0644 29.0746 16.9595C29.4005 16.6629 29.5913 16.1848 29.5858 15.6782C29.5804 15.1716 29.3793 14.7002 29.0471 14.4149C28.9095 14.2959 28.7541 14.2136 28.5903 14.1731C28.5048 14.1496 28.4174 14.138 28.3299 14.1385H27.9325C27.2453 14.0972 26.5728 13.8736 25.9589 13.4822C25.5902 13.2552 25.2082 13.0685 24.8172 12.9232C24.9463 12.7824 25.0157 12.5702 24.9996 12.3517V11.7556C25.17 11.8663 25.3247 12.0136 25.4566 12.1393C25.7234 12.3935 25.8972 12.559 25.9198 12.1536C26.0577 12.2255 26.1941 12.3018 26.3289 12.3826C26.9455 12.7885 27.6347 12.9868 28.3299 12.9583C28.4449 12.9619 28.5595 12.9773 28.6725 13.0044C28.8497 12.5757 28.9436 12.1002 28.9466 11.6169V10.2636C28.9471 9.83256 28.8739 9.40646 28.7319 9.01431C28.6028 9.04942 28.4711 9.06679 28.339 9.06612C27.5224 9.08228 26.7083 8.94846 25.9223 8.66888V12.054C25.9224 12.0905 25.9215 12.1236 25.9198 12.1536C25.6193 11.997 25.3121 11.8617 24.9996 11.7485V7.87444C25 7.68496 25.0744 7.50788 25.1985 7.40092C25.3227 7.29396 25.4806 7.27082 25.6209 7.33904C26.3925 7.70499 27.2086 7.89977 28.033 7.91474H28.33C28.4428 7.91144 28.5548 7.89016 28.6634 7.85142C28.8165 7.79771 28.9595 7.70568 29.0837 7.58083C29.5026 7.17477 29.6696 6.47759 29.4991 5.84725C29.3286 5.21692 28.8584 4.79351 28.33 4.79442C27.5079 4.82312 26.6931 4.59362 25.9589 4.1266C23.8177 2.87562 19.5764 3.47899 18.5281 4.1266C17.7921 4.59273 16.976 4.82215 16.1525 4.79442C15.3291 4.82215 14.513 4.59273 13.777 4.1266C12.7274 3.47809 11.5696 3.15629 10.4009 3.1882C9.2322 3.15629 8.07447 3.47809 7.02485 4.1266C6.29071 4.59362 5.4759 4.82312 4.65384 4.79442C3.97009 4.79442 3.4158 5.49293 3.4158 6.35458C3.41606 6.82914 3.5896 7.27715 3.88635 7.56932C4.01061 7.69417 4.15355 7.78619 4.30664 7.8399C4.41524 7.87865 4.5273 7.89992 4.64014 7.90323H4.93708C5.84609 7.89233 6.74463 7.65765 7.5822 7.21238L8.0162 6.9821C8.24462 6.85544 8.45476 6.7403 8.67862 6.63668C9.22816 6.40077 9.80693 6.29156 10.3872 6.31428C10.969 6.29125 11.5493 6.40046 12.1004 6.63668C12.3059 6.7403 12.5344 6.85544 12.7628 6.9821L13.2196 7.21238C14.1392 7.70367 15.1311 7.94308 16.1297 7.91474C17.1388 7.946 18.1417 7.70659 19.0718 7.21238L19.2271 7.21814C19.3477 7.28254 19.4257 7.33958 19.4719 7.38929C19.4376 7.39456 19.4039 7.40473 19.3713 7.41964C18.6618 7.72707 19.782 7.72277 19.4719 7.38929C19.4885 7.38674 19.5053 7.38533 19.522 7.38509C19.6173 7.38587 19.7099 7.42411 19.787 7.49448C19.9068 7.60195 19.9782 7.7755 19.9789 7.9608V13.4247C20.0044 13.7711 20.235 14.2836 20.5111 14.2836C20.7872 14.2836 21.0178 14.0186 21.0433 13.6722V11.5475C21.0132 10.872 21.282 10.231 21.7418 9.88186C21.9922 9.69171 22.1828 9.74401 22.43 9.81184C22.6367 9.86855 22.8829 9.93611 23.2367 9.88186C23.6894 9.81245 23.8619 10.6395 23.9211 11.4755C23.8759 11.4604 23.832 11.4571 23.7896 11.4634C23.5334 11.4252 23.2762 11.3994 23.0185 11.386C22.9967 11.1904 22.9073 11.0136 22.7706 10.9069C22.5981 10.7723 22.3802 10.7723 22.2078 10.9069C22.0735 11.0116 21.9849 11.1839 21.9611 11.3752H21.9569V11.4171C21.9539 11.4581 21.9539 11.4998 21.9569 11.5418V11.4171C21.958 11.4031 21.9594 11.3891 21.9611 11.3752H22.5874C22.7312 11.3749 22.8749 11.3785 23.0185 11.386C23.0242 11.4369 23.0253 11.4892 23.0214 11.5418V12.0772C23.0221 12.4098 23.0946 12.285 23.2234 12.0634C23.3572 11.8333 23.5517 11.4987 23.7896 11.4634C23.8336 11.47 23.8777 11.4769 23.9217 11.4843C23.9489 11.8737 23.9516 12.2644 23.9468 12.5666C23.9413 12.537 23.9374 12.5069 23.9351 12.4763V12.3517C23.932 12.3936 23.9321 12.4353 23.9351 12.4763V12.669C23.4898 12.5768 23.0371 12.5365 22.5828 12.5496H21.9524V13.6664C21.9536 14.3448 21.6514 14.9661 21.1712 15.2727C21.0178 15.3748 20.8503 15.4393 20.6778 15.4627C20.5671 15.4972 20.4518 15.5011 20.3397 15.4742C20.1672 15.4508 19.9998 15.3863 19.8464 15.2842C19.424 15.013 19.3926 14.8964 19.2801 14.4774C19.2644 14.4191 19.2471 14.3549 19.227 14.2836C19.1788 14.0936 19.1952 13.8799 19.2094 13.695V13.695C19.241 13.2849 19.2616 13.0161 18.5418 13.4592C17.8065 13.9281 16.9899 14.1577 16.1662 14.127C15.3425 14.1577 14.5259 13.9281 13.7906 13.4592C12.7406 12.8127 11.5829 12.4929 10.4146 12.5266C9.24632 12.494 8.08881 12.8137 7.03851 13.4592C6.42488 13.8514 5.75223 14.075 5.06495 14.1155H4.6675C4.57996 14.115 4.49264 14.1266 4.4071 14.15C4.24381 14.1925 4.08864 14.2746 3.95026 14.3918C3.62046 14.6797 3.42181 15.1512 3.41727 15.6567C3.41273 16.1623 3.60287 16.6392 3.92742 16.9365C4.05726 17.0529 4.20275 17.1387 4.35685 17.1898C4.46526 17.2152 4.5758 17.2229 4.68578 17.2128H5.05125C5.66956 17.1962 6.28366 17.0801 6.87862 16.8674C7.0198 16.8153 7.17223 16.8521 7.28815 16.9662C7.40407 17.0804 7.46929 17.2579 7.46337 17.4431V21.7148C7.48887 22.0612 7.71952 22.3262 7.99559 22.3262C8.27167 22.3262 8.50232 22.0612 8.52781 21.7148V19.0148C8.57095 18.0482 9.20549 17.2922 9.97372 17.2922C10.7419 17.2922 11.3765 18.0482 11.4196 19.0148V19.5502C11.4451 19.8966 11.6758 20.1615 11.9518 20.1615C12.2279 20.1615 12.4586 19.8966 12.4841 19.5502V18.9745C12.5272 18.0079 13.1617 17.2519 13.93 17.2519C14.6982 17.2519 15.3327 18.0079 15.3759 18.9745V26.2456C15.3711 26.2915 15.3711 26.3379 15.3759 26.3838C15.4225 26.6935 15.6374 26.9177 15.8875 26.9177C16.1377 26.9177 16.3525 26.6935 16.3992 26.3838C16.4014 26.3397 16.4014 26.2955 16.3992 26.2514V17.7655C16.399 17.6758 16.3534 17.5967 16.3143 17.529C16.2213 17.368 16.1653 17.2709 16.8449 17.2473C17.8088 17.2782 18.7676 17.0628 19.6636 16.6141C19.8217 16.5353 19.971 16.4528 20.1161 16.3726L20.221 16.3147L20.7235 16.0384C20.8697 15.9693 21.022 15.9059 21.1803 15.8484C22.1017 15.5798 23.0595 15.5798 23.9808 15.8484C24.1452 15.9059 24.264 15.952 24.4376 16.0384C24.6112 16.1247 24.7802 16.2168 24.9538 16.3147C25.1274 16.4126 25.3148 16.5162 25.5158 16.6141C26.2957 17.0066 27.1249 17.221 27.9644 17.2473H28.3299ZM23.9447 12.671C23.9421 12.7857 23.9385 12.8837 23.9351 12.9589V12.669L23.9447 12.671ZM23.9755 12.6775C24.0179 12.8031 24.0904 12.912 24.186 12.9866C24.3584 13.1211 24.5763 13.1211 24.7487 12.9866C24.7731 12.9676 24.796 12.9463 24.8172 12.9232C24.5407 12.8204 24.2596 12.7384 23.9755 12.6775ZM23.9755 12.6775L23.9447 12.671C23.9455 12.6376 23.9462 12.6027 23.9468 12.5666C23.9538 12.6047 23.9634 12.6418 23.9755 12.6775ZM23.9217 11.4843C23.9215 11.4813 23.9213 11.4784 23.9211 11.4755C23.9333 11.4796 23.9455 11.4845 23.9579 11.4904C23.9458 11.4883 23.9338 11.4863 23.9217 11.4843ZM24.9741 11.7394L24.9996 11.7485V11.7556C24.9911 11.7501 24.9826 11.7447 24.9741 11.7394ZM24.5016 11.5881C24.6603 11.633 24.8178 11.6834 24.9741 11.7394C24.8265 11.6475 24.6675 11.5848 24.5016 11.5881ZM28.9466 23.3211V19.6826C28.9415 19.2288 28.8556 18.7822 28.6953 18.3758C28.575 18.4059 28.4526 18.4214 28.3299 18.4218C27.0341 18.4564 25.7502 18.1033 24.5838 17.3913C23.3163 16.6317 22.7705 16.3147 20.5773 17.3913C19.2035 18.0656 18.7521 18.103 18.3046 18.1401C18.0376 18.1622 17.772 18.1842 17.3128 18.3412V24.4322C17.6008 24.3227 17.8818 24.1861 18.1534 24.0235C18.3013 23.9334 18.4252 23.8547 18.5312 23.7873L18.5313 23.7873C19.0723 23.4436 19.1484 23.3953 19.5647 23.6448C21.7619 22.6578 24.1898 22.7821 26.3289 24.0177C26.9454 24.4236 27.6347 24.6219 28.3299 24.5934C28.454 24.597 28.5776 24.6124 28.6999 24.6395C28.8592 24.2287 28.9435 23.7782 28.9466 23.3211ZM28.3299 28.8708C28.6591 28.8709 28.9747 28.7057 29.207 28.4119C29.4393 28.118 29.5692 27.7197 29.5634 27.2934C29.5595 26.579 29.1723 25.9584 28.6223 25.7851C28.5253 25.753 28.4256 25.7356 28.3254 25.7333H27.9873C27.2814 25.7023 26.5893 25.4783 25.9589 25.0769C23.8163 23.8338 19.5608 24.4268 18.5053 25.0769C18.1181 25.3144 17.7103 25.4941 17.2901 25.6124V26.2687C17.2923 26.3127 17.2923 26.357 17.2901 26.4011C17.2789 26.5987 17.2435 26.7929 17.185 26.9768C17.1135 27.1933 17.0078 27.3891 16.8743 27.5525C16.6078 27.903 16.2408 28.1041 15.8556 28.1109C15.4718 28.1092 15.1041 27.9168 14.8323 27.5755C14.7017 27.4103 14.5978 27.2148 14.5262 26.9998C14.4634 26.8177 14.4278 26.6225 14.4211 26.4241C14.4189 26.3781 14.4189 26.3319 14.4211 26.2859V25.4512C14.2064 25.3533 14.0008 25.2439 13.777 25.1172C12.7269 24.4707 11.5692 24.1509 10.4009 24.1846C9.2341 24.1518 8.07804 24.4716 7.0294 25.1172C6.39432 25.5193 5.69764 25.7432 4.98732 25.7736H4.65383C4.55356 25.7759 4.45388 25.7933 4.35688 25.8254C4.20168 25.8718 4.05457 25.9537 3.92288 26.0672C3.48947 26.4653 3.30875 27.1698 3.47522 27.8122C3.6417 28.4547 4.11751 28.8891 4.65383 28.8881C5.82254 28.92 6.98027 28.5982 8.02989 27.9497C8.28887 27.799 8.55424 27.6664 8.82479 27.5525C9.33543 27.3574 9.86746 27.2661 10.4009 27.2819C10.9359 27.2655 11.4695 27.3568 11.9816 27.5525C12.2472 27.6613 12.508 27.7882 12.7628 27.9324C13.8165 28.5837 14.9792 28.9055 16.1525 28.8708C16.5121 28.8807 16.6042 28.889 16.5933 28.895C16.3707 28.902 16.3653 28.905 16.4183 28.9047C16.4712 28.9044 16.5826 28.9008 16.5933 28.895C16.6549 28.893 16.7331 28.8907 16.8312 28.8881C17.9999 28.92 19.1577 28.5982 20.2073 27.9497C20.4666 27.8 20.7319 27.6674 21.0022 27.5525C22.035 27.1916 23.1262 27.1916 24.159 27.5525C24.4295 27.6598 24.6949 27.7866 24.9539 27.9324C26.0041 28.5786 27.1614 28.9003 28.3299 28.8708ZM4.03706 23.3211V19.6826C4.03805 19.2171 4.12402 18.7581 4.28832 18.3412C4.40869 18.3713 4.53108 18.3868 4.6538 18.3873C5.27635 18.3942 5.89784 18.3209 6.50857 18.1685V21.6745C6.50514 22.5781 7.02845 23.3479 7.73748 23.4823C7.36624 23.6384 7.00179 23.819 6.64563 24.0234C6.02725 24.4285 5.33669 24.6268 4.64009 24.5991C4.516 24.6028 4.39231 24.6182 4.27005 24.6452C4.11271 24.2322 4.03299 23.7791 4.03706 23.3211ZM9.40042 21.686C9.39687 22.2702 9.17297 22.8174 8.79739 23.1598C9.32591 23.0305 9.86256 22.9611 10.4009 22.9526C11.6966 22.9193 12.9802 23.2724 14.147 23.9831L14.4211 24.1328V18.9514C14.3956 18.605 14.165 18.34 13.8889 18.34C13.6128 18.34 13.3822 18.605 13.3567 18.9514V19.5271C13.3135 20.4937 12.679 21.2496 11.9108 21.2496C11.1425 21.2496 10.508 20.4937 10.4649 19.5271V18.9859C10.4394 18.6395 10.2087 18.3746 9.93265 18.3746C9.65657 18.3746 9.42592 18.6395 9.40042 18.9859V21.686ZM4.26087 8.99702C4.11381 9.39357 4.03741 9.82587 4.03702 10.2636V11.6342C4.03935 12.1194 4.13331 12.597 4.31112 13.0274C4.42416 13.0004 4.53874 12.985 4.65375 12.9813C5.35035 13.009 6.04091 12.8107 6.65929 12.4056C7.8241 11.6935 9.10648 11.3403 10.4008 11.3751C11.6967 11.3396 12.9807 11.6928 14.1469 12.4056C14.7653 12.8107 15.4559 13.009 16.1525 12.9813C16.8477 13.0098 17.5369 12.8115 18.1534 12.4056C18.2986 12.3172 18.4206 12.2398 18.5254 12.1734C18.8089 11.9935 18.9656 11.8942 19.1091 11.8754C19.1873 11.1148 19.2919 9.46335 18.8585 8.54489C17.9877 8.90107 17.0731 9.07249 16.1525 9.04884C14.8568 9.08213 13.5732 8.72903 12.4064 8.01832C11.7884 7.61175 11.0975 7.41343 10.4008 7.44262C9.70562 7.41416 9.01637 7.61247 8.39986 8.01832C7.23304 8.72903 5.94945 9.08213 4.65375 9.04884C4.52169 9.04951 4.38996 9.03214 4.26087 8.99702Z" fill="#828487"/>
</g>
</g>
</svg>
